<svg xmlns="http://www.w3.org/2000/svg" width="24" height="24" viewBox="0 0 24 24" fill="none" stroke="#ffb700" stroke-width="2" stroke-linecap="round" stroke-linejoin="round">
  <path d="M10 5.172C10 3.782 8.48 2.5 6.5 2.5S3 3.782 3 5.172v1.986a8.038 8.038 0 0 1-1.689 3.236c-.456.551-1.094.945-1.311 1.055a1.002 1.002 0 0 0-.5 1.257L1.5 19c.175.7 1.25 1 2 1h16c.75 0 1.825-.3 2-1l2-6.3a1.002 1.002 0 0 0-.5-1.257c-.217-.11-.855-.504-1.311-1.055A8.038 8.038 0 0 1 18 7.158V5.172C18 3.782 16.48 2.5 14.5 2.5s-3.5 1.282-3.5 2.672V6h-1Z"/>
</svg>
